HIERARCHY
ROOT Hips
{
	OFFSET 0.000000 0.000000 0.000000
	CHANNELS 6 Xposition Yposition Zposition Xrotation Yrotation Zrotation
	JOINT LeftUpLeg_virtual
	{
		OFFSET 0.000000 0.000000 0.000000
		CHANNELS 3 Xrotation Yrotation Zrotation
		JOINT LeftUpLeg
		{
			OFFSET 13.026900 -6.336304 -1.092800
			CHANNELS 3 Xrotation Yrotation Zrotation
			JOINT LeftLeg
			{
				OFFSET 0.524474 -46.096886 9.782700
				CHANNELS 3 Xrotation Yrotation Zrotation
				JOINT LeftFoot
				{
					OFFSET -0.524474 -53.427422 -12.948200
					CHANNELS 3 Xrotation Yrotation Zrotation
					JOINT LeftToeBase
					{
						OFFSET 0.192200 -14.009700 16.364100
						CHANNELS 3 Xrotation Yrotation Zrotation
						JOINT LeftToe_End
						{
							OFFSET -1.784700 -0.561700 9.474800
							CHANNELS 3 Xrotation Yrotation Zrotation
							End Site
							{
								OFFSET 0 0 0
							}
						}
					}
				}
			}
		}
	}
	JOINT RightUpLeg_virtual
	{
		OFFSET 0.000000 0.000000 0.000000
		CHANNELS 3 Xrotation Yrotation Zrotation
		JOINT RightUpLeg
		{
			OFFSET -12.883000 -6.336304 -1.092800
			CHANNELS 3 Xrotation Yrotation Zrotation
			JOINT RightLeg
			{
				OFFSET -0.524587 -46.096825 9.782800
				CHANNELS 3 Xrotation Yrotation Zrotation
				JOINT RightFoot
				{
					OFFSET 0.524587 -53.427383 -12.948300
					CHANNELS 3 Xrotation Yrotation Zrotation
					JOINT RightToeBase
					{
						OFFSET -0.192200 -14.009700 16.364100
						CHANNELS 3 Xrotation Yrotation Zrotation
						JOINT RightToe_End
						{
							OFFSET 1.784700 -0.561700 9.474800
							CHANNELS 3 Xrotation Yrotation Zrotation
							End Site
							{
								OFFSET 0 0 0
							}
						}
					}
				}
			}
		}
	}
	JOINT Spine_virtual
	{
		OFFSET 0.000000 0.000000 0.000000
		CHANNELS 3 Xrotation Yrotation Zrotation
		JOINT Spine
		{
			OFFSET 0.072000 7.257294 -0.789700
			CHANNELS 3 Xrotation Yrotation Zrotation
			JOINT Spine1
			{
				OFFSET 0.000000 12.508769 -0.658067
				CHANNELS 3 Xrotation Yrotation Zrotation
				JOINT Spine1_split
				{
					OFFSET 0.000000 12.508769 -0.658067
					CHANNELS 3 Xrotation Yrotation Zrotation
					JOINT Spine2
					{
						OFFSET 0.000000 12.508769 -0.658067
						CHANNELS 3 Xrotation Yrotation Zrotation
						JOINT Neck_virtual
						{
							OFFSET 0.000000 0.000000 0.000000
							CHANNELS 3 Xrotation Yrotation Zrotation
							JOINT Neck
							{
								OFFSET 0.000000 14.033295 7.520400
								CHANNELS 3 Xrotation Yrotation Zrotation
								JOINT Head
								{
									OFFSET 0.000000 8.198502 5.703100
									CHANNELS 3 Xrotation Yrotation Zrotation
									JOINT HeadTop_End
									{
										OFFSET 0.000000 17.760803 13.332701
										CHANNELS 3 Xrotation Yrotation Zrotation
										End Site
										{
											OFFSET 0 0 0
										}
									}
								}
							}
						}
						JOINT LeftShoulder_virtual
						{
							OFFSET 0.000000 0.000000 0.000000
							CHANNELS 3 Xrotation Yrotation Zrotation
							JOINT LeftShoulder
							{
								OFFSET 6.292450 5.785301 -0.669000
								CHANNELS 3 Xrotation Yrotation Zrotation
								JOINT LeftShoulder_split
								{
									OFFSET 6.292450 5.785301 -0.669000
									CHANNELS 3 Xrotation Yrotation Zrotation
									JOINT LeftArm
									{
										OFFSET 13.907140 -6.093903 1.965100
										CHANNELS 3 Xrotation Yrotation Zrotation
										JOINT LeftForeArm
										{
											OFFSET 34.140198 0.000000 0.000000
											CHANNELS 3 Xrotation Yrotation Zrotation
											JOINT LeftHand
											{
												OFFSET 40.960209 0.000000 0.000000
												CHANNELS 3 Xrotation Yrotation Zrotation
												End Site
												{
													OFFSET 0 0 0
												}
											}
										}
									}
								}
							}
						}
						JOINT RightShoulder_virtual
						{
							OFFSET 0.000000 0.000000 0.000000
							CHANNELS 3 Xrotation Yrotation Zrotation
							JOINT RightShoulder
							{
								OFFSET -6.292450 5.785301 -0.669000
								CHANNELS 3 Xrotation Yrotation Zrotation
								JOINT RightShoulder_split
								{
									OFFSET -6.292450 5.785301 -0.669000
									CHANNELS 3 Xrotation Yrotation Zrotation
									JOINT RightArm
									{
										OFFSET -13.907140 -6.093903 1.965100
										CHANNELS 3 Xrotation Yrotation Zrotation
										JOINT RightForeArm
										{
											OFFSET -34.140198 0.000000 0.000000
											CHANNELS 3 Xrotation Yrotation Zrotation
											JOINT RightHand
											{
												OFFSET -40.960209 0.000000 0.000000
												CHANNELS 3 Xrotation Yrotation Zrotation
												End Site
												{
													OFFSET 0 0 0
												}
											}
										}
									}
								}
							}
						}
					}
				}
			}
		}
	}
}
MOTION
Frames: 10
Frame Time: 0.03333333
-0.037469 123.448975 -5.078072 0.000000 0.000000 0.000000 -87.614115 -5.083503 -2.060948 4.802840 22.641802 14.642273 -4.410437 5.342497 3.638906 19.758180 28.878555 -25.642999 -4.912267 -0.225001 -0.041802 0.000000 0.000000 0.000000 -90.258689 -1.620678 0.206286 7.588470 -21.563186 -11.916741 -0.168616 -2.032338 -5.185917 28.514066 -31.794189 27.393850 -11.752293 0.710992 -0.814104 0.000000 0.000000 0.000000 -88.446858 -6.157600 -3.774757 2.371983 -1.363673 0.902343 -2.629183 -1.195532 0.537309 1.206367 2.527280 -0.277621 0.000000 0.000000 0.000000 -2.416316 -1.678259 0.412889 -11.330649 -2.259354 -1.447772 15.168020 -0.040975 3.195390 0.000000 0.000000 0.000000 -0.489286 -1.604682 0.751585 0.755079 1.305725 -5.609662 -1.247121 0.529650 -2.808326 37.894108 -28.488640 -54.941710 -154.475711 -88.550035 -153.470321 0.000000 0.000000 0.000000 -0.427191 -1.203194 0.223318 0.620539 -2.705273 13.777120 2.662625 4.631334 -0.476627 28.020107 24.471777 47.277067 178.756077 79.165895 -179.898563 0.000000 0.000000 0.000000 
-0.273379 123.632996 -4.468075 0.000000 0.000000 0.000000 -87.490857 -4.747560 -1.889837 4.375251 22.790933 14.917044 -4.481408 5.368129 3.543856 19.917562 28.596161 -25.912604 -4.943963 -0.236780 -0.021716 0.000000 0.000000 0.000000 -89.724042 -1.360942 0.260972 7.703857 -21.064250 -11.975196 -0.414881 -2.106746 -5.171172 28.949637 -31.874273 27.541988 -11.649629 0.716694 -0.787334 0.000000 0.000000 0.000000 -88.204216 -6.194957 -3.955031 2.093924 -1.474718 0.895357 -2.718523 -1.262991 0.433828 0.997475 2.133980 -0.391497 0.000000 0.000000 0.000000 -2.541004 -1.707152 0.329548 -11.354125 -2.114845 -1.447557 15.343706 -0.189701 2.987126 0.000000 0.000000 0.000000 -0.485058 -1.657797 0.663924 0.791465 0.735924 -5.307966 -0.714733 0.378770 -2.469921 37.672236 -28.742635 -54.989334 -140.166929 -88.688053 -139.068389 0.000000 0.000000 0.000000 -0.485310 -1.234421 0.135145 0.652350 -3.057450 13.749898 2.522362 4.408157 0.417321 26.912501 25.272450 48.498113 -179.753531 79.970396 178.526802 0.000000 0.000000 0.000000 
-0.397188 123.853714 -4.045055 0.000000 0.000000 0.000000 -87.225914 -4.773241 -1.955795 4.090333 22.703248 15.193006 -4.479029 5.459918 3.464441 19.906434 28.409395 -25.811883 -4.924529 -0.242035 -0.031343 0.000000 0.000000 0.000000 -89.064424 -1.306210 0.203719 7.414714 -20.739941 -11.971801 -0.662838 -2.201336 -5.165045 29.689996 -31.877415 27.890432 -11.791626 0.746581 -0.793365 0.000000 0.000000 0.000000 -87.832169 -6.332582 -4.158796 1.831330 -1.566015 0.956532 -2.850362 -1.341331 0.246676 0.758759 1.781084 -0.433737 0.000000 0.000000 0.000000 -2.598435 -1.772745 0.189948 -11.461491 -2.070524 -1.279135 15.354789 -0.461433 2.931470 0.000000 0.000000 0.000000 -0.604401 -1.704038 0.496842 0.851005 -0.185644 -4.747814 -0.422038 0.908237 -2.586681 38.199940 -29.349016 -54.130878 -136.262288 -88.839888 -135.138503 0.000000 0.000000 0.000000 -0.582744 -1.280418 -0.002090 0.701909 -3.647344 13.687512 2.326408 4.065820 0.822419 23.667550 25.692962 51.878415 -178.678158 81.430144 177.343731 0.000000 0.000000 0.000000 
-0.380426 123.986015 -3.811825 0.000000 0.000000 0.000000 -86.873367 -5.179069 -2.228078 3.969264 22.259281 15.326606 -4.333943 5.531422 3.457415 19.704592 28.383749 -25.374096 -4.816589 -0.238469 -0.090347 0.000000 0.000000 0.000000 -88.477786 -1.467751 0.123184 6.719001 -20.634311 -11.958857 -0.817471 -2.340909 -5.197630 30.365085 -31.916542 28.201675 -11.995850 0.784590 -0.812042 0.000000 0.000000 0.000000 -87.400719 -6.567788 -4.299539 1.625674 -1.625561 1.027242 -2.989925 -1.394847 0.028006 0.475749 1.611455 -0.399227 0.000000 0.000000 0.000000 -2.579825 -1.840527 0.025499 -11.570311 -2.109809 -1.049816 15.268531 -0.799072 2.945367 0.000000 0.000000 0.000000 -0.837412 -1.726060 0.293645 0.925759 -1.282554 -4.144610 -0.401808 1.954940 -3.137715 39.224878 -30.025894 -52.626259 -140.606780 -89.065394 -139.505016 0.000000 0.000000 0.000000 -0.723803 -1.313648 -0.147043 0.794807 -4.344708 13.664767 2.203642 3.756668 0.614422 18.693102 25.252862 56.770555 -177.958721 83.582500 176.521840 0.000000 0.000000 0.000000 
-0.196061 123.998405 -3.708519 0.000000 0.000000 0.000000 -86.502823 -5.830358 -2.511783 4.003964 21.455205 15.216377 -4.070680 5.476930 3.527489 19.445140 28.435444 -24.827753 -4.689418 -0.225165 -0.181771 0.000000 0.000000 0.000000 -88.010758 -1.830364 0.106941 5.707319 -20.660684 -12.041460 -0.810745 -2.539909 -5.284325 30.555456 -32.181444 28.168991 -11.930308 0.814720 -0.818559 0.000000 0.000000 0.000000 -86.946621 -6.845371 -4.291321 1.511880 -1.666708 1.023152 -3.081993 -1.381672 -0.154074 0.334294 1.471811 -0.422822 0.000000 0.000000 0.000000 -2.500678 -1.884184 -0.112531 -11.569680 -2.180873 -0.911007 15.248732 -1.066121 2.892294 0.000000 0.000000 0.000000 -1.115100 -1.716039 0.123726 0.993669 -2.344116 -3.769663 -0.624218 3.027862 -3.646854 40.385211 -30.499896 -50.827645 -154.194826 -89.265648 -153.160531 0.000000 0.000000 0.000000 -0.885530 -1.325435 -0.248288 0.916785 -4.966240 13.780923 1.951288 3.757465 0.094292 12.934498 23.804012 62.020037 -177.904612 86.366922 176.386138 0.000000 0.000000 0.000000 
0.104474 123.905701 -3.775829 0.000000 0.000000 0.000000 -86.114281 -6.549367 -2.605718 4.009900 20.405178 14.903529 -3.716045 5.266827 3.660245 19.322344 28.447813 -24.392728 -4.684980 -0.202505 -0.259104 0.000000 0.000000 0.000000 -87.683004 -2.332727 0.216530 4.515279 -20.704769 -12.307758 -0.603704 -2.793348 -5.415526 30.161217 -32.672978 27.746621 -11.524241 0.826121 -0.796408 0.000000 0.000000 0.000000 -86.489306 -7.095569 -4.073108 1.504301 -1.718128 0.889069 -3.065661 -1.300817 -0.249330 0.502504 1.268054 -0.363576 0.000000 0.000000 0.000000 -2.337989 -1.881497 -0.192340 -11.404760 -2.180434 -1.001805 15.549551 -1.267473 2.698417 0.000000 0.000000 0.000000 -1.333169 -1.679542 0.025879 1.017712 -3.163890 -3.887253 -0.980556 3.954288 -3.853830 41.323409 -30.539910 -49.064445 -170.249145 -89.461497 -169.314420 0.000000 0.000000 0.000000 -1.022156 -1.289602 -0.279779 1.065446 -5.346120 14.140413 1.717346 4.176836 -0.554079 7.548109 21.856505 66.289035 177.727628 89.087851 -179.286496 0.000000 0.000000 0.000000 
0.433144 123.731941 -3.848904 0.000000 0.000000 0.000000 -85.755320 -7.195321 -2.437280 3.880078 19.333592 14.464153 -3.324791 4.949531 3.820140 19.494550 28.358725 -24.160223 -4.804735 -0.178635 -0.285610 0.000000 0.000000 0.000000 -87.434242 -2.871168 0.496146 3.305123 -20.670140 -12.823789 -0.240794 -2.995677 -5.552060 29.437709 -33.159370 27.222631 -11.076292 0.817953 -0.766782 0.000000 0.000000 0.000000 -86.109943 -7.259449 -3.645413 1.630096 -1.793369 0.625256 -2.867640 -1.191029 -0.262836 0.810707 0.876730 -0.396526 0.000000 0.000000 0.000000 -2.041863 -1.814330 -0.210931 -11.066747 -2.111792 -1.360954 16.303954 -1.471805 2.325828 0.000000 0.000000 0.000000 -1.366925 -1.633694 -0.005693 0.976355 -3.602214 -4.631983 -1.348872 4.521032 -3.781620 41.647792 -30.183419 -47.624389 175.525972 -89.828681 176.358312 0.000000 0.000000 0.000000 -1.030393 -1.214795 -0.257654 1.209922 -5.405766 14.771807 1.502672 4.670208 -0.931807 3.435482 20.112663 68.484668 9.774738 89.071691 -11.269563 0.000000 0.000000 0.000000 
0.770581 123.559860 -3.989574 0.000000 0.000000 0.000000 -85.419951 -7.665422 -2.051830 3.519994 18.418353 14.025987 -2.993509 4.636137 3.974780 19.976480 28.187511 -24.104185 -4.982871 -0.158806 -0.246072 0.000000 0.000000 0.000000 -87.094467 -3.339723 0.866488 2.284257 -20.499626 -13.446207 0.208940 -3.029295 -5.670967 28.664098 -33.459355 26.893747 -10.796249 0.794117 -0.747372 0.000000 0.000000 0.000000 -85.789594 -7.339309 -3.144748 1.862165 -1.872028 0.324236 -2.421154 -1.052995 -0.214701 1.171352 0.674333 -0.482159 0.000000 0.000000 0.000000 -1.555850 -1.688236 -0.184179 -10.524689 -2.012720 -1.923927 17.640717 -1.616703 1.792485 0.000000 0.000000 0.000000 -1.091650 -1.581615 0.005367 0.856614 -3.552550 -5.921782 -1.607333 4.551760 -3.294935 41.345003 -29.690194 -46.462652 1.758596 -89.655652 2.478461 0.000000 0.000000 0.000000 -0.810265 -1.118502 -0.221376 1.307009 -5.202079 15.664964 1.410336 5.147960 -0.915893 1.219739 19.249872 67.878734 11.543443 88.960332 -12.853717 0.000000 0.000000 0.000000 
1.023011 123.419235 -4.154797 0.000000 0.000000 0.000000 -85.080354 -7.893726 -1.582532 2.931377 17.799326 13.679255 -2.788429 4.482011 4.133738 20.631348 28.086385 -24.068395 -5.172361 -0.151533 -0.135800 0.000000 0.000000 0.000000 -86.619919 -3.661951 1.235699 1.652732 -20.167727 -13.932709 0.524783 -2.881061 -5.796005 27.952158 -33.537690 26.817751 -10.641343 0.760673 -0.736278 0.000000 0.000000 0.000000 -85.528469 -7.341127 -2.681213 2.181683 -1.915363 0.128487 -1.663838 -0.902165 -0.150303 1.377286 0.651651 -0.514227 0.000000 0.000000 0.000000 -0.807558 -1.528830 -0.157110 -9.668990 -1.908134 -2.501197 19.518179 -1.708051 1.142761 0.000000 0.000000 0.000000 -0.442153 -1.524619 0.016251 0.706142 -2.958217 -7.430654 -1.599013 3.969976 -2.679863 40.730068 -29.401745 -45.308798 -2.819747 -89.075919 -2.212218 0.000000 0.000000 0.000000 -0.262936 -1.031006 -0.217441 1.353642 -4.918040 16.750245 1.574787 5.480194 -0.886496 0.967817 19.559544 64.451919 171.312045 88.944636 -172.333486 0.000000 0.000000 0.000000 
1.175197 123.419609 -4.392963 0.000000 0.000000 0.000000 -84.758727 -7.901241 -1.165365 2.288275 17.554156 13.456708 -2.702183 4.511015 4.309942 21.303010 28.175304 -23.923484 -5.375256 -0.167288 0.032856 0.000000 0.000000 0.000000 -86.053021 -3.779161 1.544133 1.555400 -19.676759 -14.084815 0.534127 -2.632843 -5.948961 27.200982 -33.493591 26.828616 -10.457498 0.728412 -0.724506 0.000000 0.000000 0.000000 -85.322723 -7.318315 -2.374757 2.546934 -1.877161 0.172878 -0.558313 -0.750821 -0.120510 1.491902 0.735924 -0.512100 0.000000 0.000000 0.000000 0.257365 -1.347774 -0.176066 -8.401034 -1.821818 -2.948492 21.744833 -1.821929 0.435824 0.000000 0.000000 0.000000 0.625647 -1.458542 -0.017572 0.570175 -1.868286 -8.709339 -1.290213 3.086601 -2.116261 39.954609 -29.621602 -44.071977 -5.926234 -88.668662 -5.412718 0.000000 0.000000 0.000000 0.719429 -0.972099 -0.285180 1.350894 -4.726956 17.957097 1.841003 5.599584 -0.858127 2.487733 20.824478 58.692560 179.408961 85.197799 179.911677 0.000000 0.000000 0.000000 
